<svg width="64" height="35" viewBox="0 0 64 35" fill="none" xmlns="http://www.w3.org/2000/svg">
<path d="M15.3279 0.545454V34H8.25471V7.25923H8.05868L0.397461 12.0618V5.78906L8.67942 0.545454H15.3279ZM27.4118 30.1122C26.3337 30.1122 25.4081 29.7311 24.6349 28.9688C23.8725 28.2064 23.4914 27.2808 23.4914 26.1918C23.4914 25.1245 23.8725 24.2098 24.6349 23.4474C25.4081 22.6851 26.3337 22.304 27.4118 22.304C28.4573 22.304 29.3721 22.6851 30.1562 23.4474C30.9403 24.2098 31.3323 25.1245 31.3323 26.1918C31.3323 26.9105 31.1472 27.5694 30.7769 28.1683C30.4175 28.7564 29.9438 29.2301 29.3557 29.5895C28.7677 29.938 28.1197 30.1122 27.4118 30.1122ZM27.4118 13.6953C26.3337 13.6953 25.4081 13.3142 24.6349 12.5518C23.8725 11.7895 23.4914 10.8639 23.4914 9.77486C23.4914 8.70762 23.8725 7.79829 24.6349 7.04688C25.4081 6.28456 26.3337 5.90341 27.4118 5.90341C28.4573 5.90341 29.3721 6.28456 30.1562 7.04688C30.9403 7.79829 31.3323 8.70762 31.3323 9.77486C31.3323 10.5045 31.1472 11.1688 30.7769 11.7678C30.4175 12.3558 29.9438 12.8241 29.3557 13.1726C28.7677 13.5211 28.1197 13.6953 27.4118 13.6953ZM50.0974 34.7351C47.2877 34.7242 44.8701 34.0327 42.8445 32.6605C40.8299 31.2884 39.278 29.3009 38.189 26.6982C37.1109 24.0954 36.5773 20.9645 36.5882 17.3054C36.5882 13.6572 37.1272 10.5481 38.2053 7.97798C39.2944 5.40791 40.8462 3.45312 42.8609 2.11364C44.8865 0.763257 47.2986 0.0880669 50.0974 0.0880669C52.8962 0.0880669 55.3029 0.763257 57.3176 2.11364C59.3431 3.46401 60.9004 5.42424 61.9894 7.99432C63.0785 10.5535 63.6175 13.6572 63.6066 17.3054C63.6066 20.9754 63.0621 24.1117 61.9731 26.7145C60.895 29.3172 59.3486 31.3047 57.3339 32.6768C55.3192 34.049 52.907 34.7351 50.0974 34.7351ZM50.0974 28.8707C52.0141 28.8707 53.5441 27.907 54.6876 25.9794C55.8311 24.0518 56.3973 21.1605 56.3865 17.3054C56.3865 14.768 56.1251 12.6553 55.6024 10.9673C55.0905 9.27935 54.3609 8.01065 53.4134 7.16122C52.4769 6.31179 51.3715 5.88707 50.0974 5.88707C48.1916 5.88707 46.667 6.83996 45.5235 8.74574C44.3801 10.6515 43.8029 13.5047 43.792 17.3054C43.792 19.8755 44.0479 22.0208 44.5597 23.7415C45.0825 25.4512 45.8176 26.7363 46.765 27.5966C47.7124 28.446 48.8232 28.8707 50.0974 28.8707Z" fill="white"/>
</svg>
